<?xml version="1.0" encoding="utf-8"?>
<svg>
    <svg version="1.1" id="compound_product" xmlns="http://www.w3.org/2000/svg" xmlns:xlink="http://www.w3.org/1999/xlink" x="0px" y="0px"
        viewBox="0 0 24 24" style="enable-background:new 0 0 24 24;" xml:space="preserve">
        <style type="text/css">
            .st0{fill:none;}
        </style>
        <g>
            <rect x="0" y="0" class="st0" width="24" height="24"/>
            <g>
                <path d="M18.3,8.4c-0.1,0.5-0.2,0.8-0.4,1c-0.2,0.2-0.5,0.3-1,0.3c-0.5,0-0.8-0.2-1-0.5c-0.3-0.4-0.4-1-0.4-1.8V6.6
                    c0-0.8,0.2-1.4,0.4-1.8c0.3-0.3,0.6-0.5,1.1-0.5c0.4,0,0.7,0.1,0.9,0.3c0.2,0.2,0.3,0.5,0.4,1L18.4,6h2.5l-0.1-0.5
                    c-0.1-1.1-0.5-1.9-1.2-2.5C19,2.4,18.1,2.1,17,2.1c-0.8,0-1.5,0.2-2.1,0.6c-0.6,0.4-1.1,0.9-1.4,1.6C13.2,5,13,5.8,13,6.7v0.8
                    c0,0.9,0.2,1.6,0.5,2.3c0.3,0.7,0.8,1.2,1.4,1.6c0.6,0.4,1.3,0.6,2.1,0.6c1.1,0,2-0.3,2.7-0.9c0.7-0.6,1.1-1.4,1.2-2.5L20.9,8
                    h-2.5L18.3,8.4z"/>
                <path d="M13,13.9v8h8v-8H13z M3,21.9h8v-8H3V21.9z M3,3.9v8h8v-8H3z"/>
            </g>
        </g>
    </svg>

    <svg version="1.1" id="confirm_save" xmlns="http://www.w3.org/2000/svg" xmlns:xlink="http://www.w3.org/1999/xlink" x="0px" y="0px"
        viewBox="0 0 24 24" style="enable-background:new 0 0 24 24;" xml:space="preserve">
        <g>
            <polygon points="20.3,11.9 14.5,17.8 11.3,14.6 9.7,16.2 14.5,21 21.9,13.5 	"/>
            <path d="M6.8,16.2l4.4-4.4l3.2,3.2l5.6-5.6V7l-4-4h-12c-1.1,0-2,0.9-2,2v14c0,1.1,0.9,2,2,2h7.6L6.8,16.2z M4.1,5h10v4h-10V5z"/>
        </g>
    </svg>

    <svg id="document_a" data-name="document_a" xmlns="http://www.w3.org/2000/svg" viewBox="0 0 24 24">
        <polygon points="9.85 19.81 9.04 22.26 14.96 22.26 14.14 19.81 9.85 19.81"/>
        <path d="M13.54,1.74H6.45a2,2,0,0,0-2,2V20.26a2,2,0,0,0,2,2L10.86,10.4h2.26l4.44,11.85a2,2,0,0,0,2-2v-13ZM13.4,6.93V3.07l4.18,3.86Z"/>
        <polygon points="10.51 17.83 13.48 17.83 11.99 13.39 10.51 17.83"/>
    </svg>

    <svg id="document_b" data-name="document_b" xmlns="http://www.w3.org/2000/svg" viewBox="0 0 24 24">
        <path d="M13.59,1.74H6.5a2,2,0,0,0-2,2V20.26a2,2,0,0,0,2,2H7.64V10.4h4.15a5.42,5.42,0,0,1,3.28.83,2.82,2.82,0,0,1,1.11,2.42,2.72,2.72,0,0,1-.44,1.53,2.6,2.6,0,0,1-1.25,1,2.5,2.5,0,0,1,1.44.92,2.7,2.7,0,0,1,.52,1.69,3.13,3.13,0,0,1-1.09,2.59,4.88,4.88,0,0,1-3.11.9h5.34a2,2,0,0,0,2-2v-13Zm-.14,5.19V3.07l4.18,3.86Z"/>
        <path d="M13.74,13.89a1.37,1.37,0,0,0-.47-1.16,2.5,2.5,0,0,0-1.48-.35H10.08v3h1.81C13.12,15.34,13.74,14.85,13.74,13.89Z"/>
        <path d="M10.08,20.29h2.1a2,2,0,0,0,1.34-.41A1.38,1.38,0,0,0,14,18.75a1.49,1.49,0,0,0-1.69-1.66H10.08Z"/>
    </svg>

    <svg id="document_c" data-name="document_c" xmlns="http://www.w3.org/2000/svg" viewBox="0 0 24 24">
        <path d="M13.54,1.74H6.45a2,2,0,0,0-2,2V20.26a2,2,0,0,0,2,2h5.6a4.33,4.33,0,0,1-3.49-1.5,6.1,6.1,0,0,1-1.27-4.1V16A7,7,0,0,1,7.87,13a4.44,4.44,0,0,1,1.68-1.94,4.63,4.63,0,0,1,2.53-.68,4.72,4.72,0,0,1,3.22,1.07,4.32,4.32,0,0,1,1.41,3H14.33a2.37,2.37,0,0,0-.62-1.62,2.32,2.32,0,0,0-1.63-.5,2,2,0,0,0-1.78.85,4.81,4.81,0,0,0-.6,2.64v.88a5.2,5.2,0,0,0,.56,2.73,2,2,0,0,0,1.79.86,2.34,2.34,0,0,0,1.65-.5,2.25,2.25,0,0,0,.62-1.56H16.7a4.09,4.09,0,0,1-1.38,2.94,4.86,4.86,0,0,1-3.27,1.07h5.49a2,2,0,0,0,2-2v-13ZM13.4,6.93V3.07l4.18,3.86Z"/>
    </svg>

    <svg version="1.1" id="document_confirm" xmlns="http://www.w3.org/2000/svg" xmlns:xlink="http://www.w3.org/1999/xlink" x="0px" y="0px"
	    viewBox="0 0 24 24" style="enable-background:new 0 0 24 24;" xml:space="preserve">
        <g>
            <path d="M15.3,5.5H5c-1,0-1.9,0.8-1.9,1.9l0,13.1c0,1,0.8,1.9,1.9,1.9h10.3c1,0,1.9-0.8,1.9-1.9l0-13.1C17.1,6.3,16.3,5.5,15.3,5.5
                z M8.7,17.9l-3-3L7,13.6l1.8,1.8l4.5-4.5l1.3,1.3L8.7,17.9z"/>
            <path d="M19,1.7H7.8v1.9H19l0,13.1h1.9l0-13.1C20.9,2.6,20,1.7,19,1.7z"/>
        </g>
    </svg>

    <svg version="1.1" id="document_max_discount" xmlns="http://www.w3.org/2000/svg" xmlns:xlink="http://www.w3.org/1999/xlink" x="0px" y="0px"
        viewBox="0 0 24 24" style="enable-background:new 0 0 24 24;" xml:space="preserve">
        <style type="text/css">
            .st0{fill:none;}
        </style>
        <rect class="st0" width="24" height="24"/>
        <g>
            <path d="M12.5,18.9l0.2-0.3l0.3-1.9c-0.4-0.2-0.8-0.4-1.1-0.7c-0.5-0.4-1.1-1.3-1.1-2.6v-0.1c0,0-0.1,0-0.1,0
                c-1.3,0-2.4-1.1-2.4-2.4c0-1.3,1.1-2.4,2.4-2.4c0.9,0,1.7,0.5,2.1,1.3c0.4-0.2,1-0.4,1.7-0.4c0.9,0,1.6,0.2,2.2,0.7l1.6-1.3
                c0.1-0.1,0.2-0.3,0.1-0.5l-1.6-2.8c-0.1-0.2-0.3-0.2-0.5-0.2l-2,0.8c-0.4-0.3-0.9-0.6-1.4-0.8l-0.3-2.1c0-0.2-0.2-0.3-0.4-0.3H9
                C8.8,3,8.6,3.1,8.6,3.3L8.3,5.4C7.8,5.7,7.4,5.9,6.9,6.2L5,5.4c-0.2-0.1-0.4,0-0.5,0.2L2.9,8.4C2.8,8.6,2.8,8.8,3,8.9l1.7,1.3
                c0,0.3,0,0.5,0,0.8c0,0.3,0,0.5,0,0.8L3,13.1c-0.1,0.1-0.2,0.3-0.1,0.5l1.6,2.8c0.1,0.2,0.3,0.2,0.5,0.2l2-0.8
                c0.4,0.3,0.9,0.6,1.4,0.8l0.3,2.1C8.6,18.9,8.8,19,9,19h3.2C12.3,19,12.4,19,12.5,18.9z"/>
            <path d="M12.2,13c0-0.6,0.2-1.1,0.6-1.5s0.9-0.6,1.6-0.6c0.7,0,1.2,0.2,1.6,0.6c0.4,0.4,0.6,0.9,0.6,1.5v0.5c0,0.6-0.2,1.1-0.6,1.4
                c-0.4,0.4-0.9,0.5-1.6,0.5c-0.7,0-1.2-0.2-1.6-0.5s-0.6-0.9-0.6-1.5V13z M13.7,13.5c0,0.2,0.1,0.4,0.2,0.6c0.1,0.1,0.3,0.2,0.5,0.2
                c0.5,0,0.7-0.3,0.7-0.9V13c0-0.2-0.1-0.4-0.2-0.6s-0.3-0.2-0.5-0.2c-0.2,0-0.4,0.1-0.5,0.2c-0.1,0.1-0.2,0.3-0.2,0.6V13.5z
                M14.8,20.1l-1-0.5l4.7-7.6l1,0.5L14.8,20.1z M16.9,18.5c0-0.6,0.2-1.1,0.6-1.5c0.4-0.4,0.9-0.5,1.6-0.5c0.7,0,1.2,0.2,1.6,0.5
                c0.4,0.4,0.6,0.9,0.6,1.5V19c0,0.6-0.2,1.1-0.6,1.5S19.7,21,19,21c-0.7,0-1.2-0.2-1.6-0.5s-0.6-0.9-0.6-1.5V18.5z M18.3,19
                c0,0.2,0.1,0.4,0.2,0.5c0.1,0.2,0.3,0.2,0.5,0.2c0.4,0,0.7-0.2,0.7-0.6l0-0.7c0-0.2-0.1-0.4-0.2-0.6c-0.1-0.1-0.3-0.2-0.5-0.2
                c-0.2,0-0.4,0.1-0.5,0.2c-0.1,0.1-0.2,0.3-0.2,0.5V19z"/>
        </g>
    </svg>

    <svg id="document_p" data-name="document_p" xmlns="http://www.w3.org/2000/svg" viewBox="0 0 24 24">
        <path d="M13.56,15.64a1.65,1.65,0,0,0,.51-1.3,2,2,0,0,0-.51-1.41,1.9,1.9,0,0,0-1.42-.55H9.9V16.1h2.19A2.11,2.11,0,0,0,13.56,15.64Z"/>
        <path d="M13.54,1.74H6.45a2,2,0,0,0-2,2V20.26a2,2,0,0,0,2,2h1V10.4h4.63a5.31,5.31,0,0,1,2.35.49A3.56,3.56,0,0,1,16,12.28a3.8,3.8,0,0,1,.55,2,3.41,3.41,0,0,1-1.19,2.75,5,5,0,0,1-3.31,1H9.9v4.18h7.64a2,2,0,0,0,2-2v-13ZM13.4,6.93V3.07l4.18,3.86Z"/>
    </svg>

    <svg version="1.1" id="document_preview" xmlns="http://www.w3.org/2000/svg" xmlns:xlink="http://www.w3.org/1999/xlink" x="0px" y="0px"
        viewBox="0 0 24 24" style="enable-background:new 0 0 24 24;" xml:space="preserve">
        <g>
            <path d="M19.9,20.4L17,17.4l-0.1-0.1h0c0.4-0.6,0.6-1.4,0.6-2.1c0-2.4-1.9-4.3-4.3-4.3c-2.4,0-4.3,1.9-4.3,4.3s1.9,4.3,4.3,4.3
                c0.8,0,1.5-0.2,2.1-0.6v0l0.1,0.1l2.9,2.9l0.3,0.3l0.3-0.3l0.9-0.9l0.3-0.3L19.9,20.4z M13.2,17.3c-1.2,0-2.1-1-2.1-2.1
                c0-1.2,1-2.1,2.1-2.1c1.2,0,2.1,1,2.1,2.1C15.3,16.3,14.4,17.3,13.2,17.3z"/>
            <path d="M7,15.2C7,11.7,9.8,9,13.2,9c2.8,0,5.2,1.9,6,4.5v-7l-4.8-4.8H5.6c-1.1,0-1.9,0.9-1.9,1.9l0,15.5c0,1.1,0.9,1.9,1.9,1.9
                h5.6C8.8,20.2,7,17.9,7,15.2z M13.4,3.2l4.3,4.3h-4.3V3.2z"/>
        </g>
    </svg>

    <svg id="document_r" data-name="document_r" xmlns="http://www.w3.org/2000/svg" viewBox="0 0 24 24">
        <path d="M13.54,1.74H6.45a2,2,0,0,0-2,2V20.26a2,2,0,0,0,2,2H8V10.4H16v2H10.47V15.2h4.69v1.92H10.47v3.17H16v2h1.57a2,2,0,0,0,2-2v-13ZM13.4,6.93V3.07l4.18,3.86Z"/>
    </svg>

    <svg id="document_x" data-name="document_x" xmlns="http://www.w3.org/2000/svg" viewBox="0 0 24 24">
        <polygon points="9.72 22.26 14.28 22.26 12 18.1 9.72 22.26"/>
        <path d="M13.54,1.74H6.45a2,2,0,0,0-2,2V20.26a2,2,0,0,0,2,2h.43l3.54-6L7,10.4H9.78L12,14.49l2.22-4.09H17l-3.45,5.88,3.54,6h.42a2,2,0,0,0,2-2v-13ZM13.4,6.93V3.07l4.18,3.86Z"/>
    </svg>

    <svg id="document_z" data-name="document_z" xmlns="http://www.w3.org/2000/svg" viewBox="0 0 15.08 20.51">
        <path d="M13.54,1.74H6.45a2,2,0,0,0-2,2V20.26a2,2,0,0,0,2,2H7.61V20.75l5.89-8.51H7.72V10.43h8.42V11.9l-5.91,8.55h6.16v1.81h1.15a2,2,0,0,0,2-2v-13ZM13.4,6.93V3.07l4.18,3.86Z" transform="translate(-4.46 -1.74)"/>
    </svg>

    <svg version="1.1" id="export_csv" xmlns="http://www.w3.org/2000/svg" xmlns:xlink="http://www.w3.org/1999/xlink" x="0px" y="0px"
        viewBox="0 0 24 24" style="enable-background:new 0 0 24 24;" xml:space="preserve">
        <g>
            <path d="M4.5,20.3c0,1.1,0.9,2,2,2h11.1c1.1,0,2-0.9,2-2H4.5z"/>
            <path d="M13.5,1.7h-7c-1.1,0-2,0.9-2,2l0,4.5h15v-1L13.5,1.7z M13.4,6.9V3.1l4.2,3.9H13.4z"/>
            <path d="M20.7,9.3H3.3c-0.4,0-0.8,0.4-0.8,0.8v8.4c0,0.4,0.4,0.8,0.8,0.8h17.4c0.4,0,0.8-0.4,0.8-0.8v-8.4
                C21.5,9.6,21.1,9.3,20.7,9.3z M4.8,16c0.2,0.3,0.5,0.5,0.9,0.5c0.4,0,0.7-0.1,0.9-0.3C6.8,16,6.9,15.7,7,15.3h1.6
                c0,0.5-0.1,0.9-0.4,1.2s-0.6,0.6-1,0.8s-0.9,0.3-1.4,0.3c-0.9,0-1.6-0.3-2.1-0.9c-0.5-0.6-0.8-1.4-0.8-2.4v-0.3
                c0-0.7,0.1-1.2,0.3-1.7c0.2-0.5,0.6-0.9,1-1.2c0.4-0.3,0.9-0.4,1.5-0.4c0.8,0,1.5,0.2,2,0.6c0.5,0.4,0.8,1,0.8,1.8H7
                c0-0.4-0.1-0.7-0.3-0.9c-0.2-0.2-0.5-0.3-0.9-0.3c-0.4,0-0.7,0.2-0.9,0.5c-0.2,0.3-0.3,0.8-0.3,1.5v0.5C4.6,15.2,4.7,15.7,4.8,16z
                M11.2,13.2c0.2,0.1,0.5,0.3,1,0.4c0.5,0.1,0.9,0.3,1.2,0.5c0.7,0.4,1.1,1,1.1,1.7c0,0.6-0.2,1.1-0.7,1.4s-1.1,0.5-1.8,0.5
                c-0.5,0-1-0.1-1.5-0.3c-0.4-0.2-0.8-0.5-1-0.8c-0.2-0.3-0.3-0.7-0.3-1.2h1.6c0,0.4,0.1,0.6,0.3,0.8c0.2,0.2,0.5,0.3,0.9,0.3
                c0.3,0,0.5-0.1,0.6-0.2s0.2-0.3,0.2-0.5c0-0.2-0.1-0.4-0.3-0.6c-0.2-0.1-0.5-0.3-0.9-0.4s-0.8-0.3-1-0.4c-0.9-0.4-1.3-1-1.3-1.8
                c0-0.4,0.1-0.7,0.3-1s0.5-0.5,0.9-0.7c0.4-0.2,0.8-0.2,1.3-0.2c0.5,0,0.9,0.1,1.3,0.3c0.4,0.2,0.7,0.4,0.9,0.7
                c0.2,0.3,0.3,0.7,0.3,1.1h-1.6c0-0.3-0.1-0.5-0.3-0.6c-0.2-0.2-0.4-0.2-0.7-0.2c-0.3,0-0.5,0.1-0.7,0.2C11,12.3,11,12.5,11,12.7
                C11,12.9,11,13,11.2,13.2z M18.8,17.6H17l-2.3-6.8h1.8l1.3,4.9l1.3-4.9h1.8L18.8,17.6z"/>
        </g>
    </svg>

    <svg version="1.1" id="export_pdf" xmlns="http://www.w3.org/2000/svg" xmlns:xlink="http://www.w3.org/1999/xlink" x="0px" y="0px"
        viewBox="0 0 24 24" style="enable-background:new 0 0 24 24;" xml:space="preserve">
        <g>
            <path d="M4.5,20.3c0,1.1,0.9,2,2,2h11.1c1.1,0,2-0.9,2-2H4.5z"/>
            <path d="M13.5,1.7h-7c-1.1,0-2,0.9-2,2l0,4.5h15v-1L13.5,1.7z M13.4,6.9V3.1l4.2,3.9H13.4z"/>
            <g>
                <path d="M11.9,12.1h-0.6v4.3H12c0.5,0,0.8-0.2,1.1-0.5c0.3-0.3,0.4-0.8,0.4-1.5v-0.3c0-0.7-0.1-1.2-0.4-1.5
                    C12.8,12.3,12.4,12.1,11.9,12.1z"/>
                <path d="M6.2,12.1H5.1v2h1.1c0.3,0,0.6-0.1,0.7-0.2s0.3-0.4,0.3-0.7c0-0.3-0.1-0.6-0.3-0.8C6.8,12.2,6.5,12.1,6.2,12.1z"/>
                <path d="M20.7,9.3H3.3c-0.4,0-0.8,0.4-0.8,0.8v8.4c0,0.4,0.4,0.8,0.8,0.8h17.4c0.4,0,0.8-0.4,0.8-0.8v-8.4
                    C21.5,9.6,21.1,9.3,20.7,9.3z M8.2,14.8c-0.5,0.4-1.1,0.6-2,0.6h-1v2.3H3.5v-6.8h2.7c0.5,0,1,0.1,1.4,0.3C8,11.3,8.3,11.6,8.5,12
                    s0.3,0.8,0.3,1.2C8.9,13.8,8.6,14.4,8.2,14.8z M15.1,14.4c0,0.6-0.1,1.2-0.4,1.7c-0.3,0.5-0.6,0.9-1.1,1.2c-0.5,0.3-1,0.4-1.6,0.4
                    H9.7v-6.8h2.2c0.6,0,1.1,0.1,1.6,0.4s0.9,0.7,1.1,1.2c0.3,0.5,0.4,1.1,0.4,1.7V14.4z M20.5,12.1h-2.9v1.6h2.6v1.3h-2.6v2.7h-1.6
                    v-6.8h4.6V12.1z"/>
            </g>
        </g>
    </svg>

    <svg version="1.1" id="export_txt" xmlns="http://www.w3.org/2000/svg" xmlns:xlink="http://www.w3.org/1999/xlink" x="0px" y="0px"
        viewBox="0 0 24 24" style="enable-background:new 0 0 24 24;" xml:space="preserve">
        <g>
            <path d="M4.5,20.3c0,1.1,0.9,2,2,2h11.1c1.1,0,2-0.9,2-2H4.5z"/>
            <path d="M20.7,9.3H3.3c-0.4,0-0.8,0.4-0.8,0.8v8.4c0,0.4,0.4,0.8,0.8,0.8h17.4c0.4,0,0.8-0.4,0.8-0.8v-8.4
                C21.5,9.6,21.1,9.3,20.7,9.3z M8.7,12.1H6.6v5.7H4.9v-5.7h-2v-1.3h5.8V12.1z M13.2,17.7L12,15.4l-1.2,2.4H8.9l2-3.5L9,10.8h1.9
                l1.1,2.3l1.1-2.3H15l-1.9,3.4l2,3.5H13.2z M21.1,12.1H19v5.7h-1.7v-5.7h-2v-1.3h5.8V12.1z"/>
            <path d="M13.5,1.7h-7c-1.1,0-2,0.9-2,2l0,4.5h15v-1L13.5,1.7z M13.4,6.9V3.1l4.2,3.9H13.4z"/>
        </g>
    </svg>

    <svg version="1.1" id="export_xls" xmlns="http://www.w3.org/2000/svg" xmlns:xlink="http://www.w3.org/1999/xlink" x="0px" y="0px"
        viewBox="0 0 24 24" style="enable-background:new 0 0 24 24;" xml:space="preserve">
        <g>
            <path d="M4.5,20.3c0,1.1,0.9,2,2,2h11.1c1.1,0,2-0.9,2-2H4.5z"/>
            <path d="M13.5,1.7h-7c-1.1,0-2,0.9-2,2l0,4.5h15v-1L13.5,1.7z M13.4,6.9V3.1l4.2,3.9H13.4z"/>
            <path d="M20.7,9.3H3.3c-0.4,0-0.8,0.4-0.8,0.8v8.4c0,0.4,0.4,0.8,0.8,0.8h17.4c0.4,0,0.8-0.4,0.8-0.8v-8.4
                C21.5,9.6,21.1,9.3,20.7,9.3z M7.8,17.6l-1.1-2.3l-1.1,2.3H3.6l1.9-3.4l-1.9-3.3h1.8l1.1,2.2l1.1-2.2h1.9l-1.9,3.3l1.9,3.4H7.8z
                M14.6,17.6h-4.4v-6.7h1.6v5.5h2.8V17.6z M17.2,13.2c0.2,0.1,0.5,0.3,1,0.4s0.8,0.3,1.1,0.5c0.7,0.4,1.1,1,1.1,1.7
                c0,0.6-0.2,1-0.7,1.4c-0.4,0.3-1.1,0.5-1.8,0.5c-0.5,0-1-0.1-1.5-0.3c-0.4-0.2-0.8-0.5-1-0.8c-0.2-0.3-0.3-0.7-0.3-1.2h1.6
                c0,0.4,0.1,0.6,0.3,0.8c0.2,0.2,0.5,0.3,0.9,0.3c0.3,0,0.5-0.1,0.6-0.2c0.2-0.1,0.2-0.3,0.2-0.5c0-0.2-0.1-0.4-0.3-0.6
                S18,15,17.6,14.9c-0.4-0.1-0.8-0.3-1-0.4c-0.9-0.4-1.3-1-1.3-1.8c0-0.4,0.1-0.7,0.3-1c0.2-0.3,0.5-0.5,0.9-0.7s0.8-0.2,1.3-0.2
                c0.5,0,0.9,0.1,1.3,0.3c0.4,0.2,0.7,0.4,0.9,0.7s0.3,0.7,0.3,1.1h-1.6c0-0.3-0.1-0.5-0.3-0.6S18.1,12,17.8,12
                c-0.3,0-0.5,0.1-0.7,0.2s-0.3,0.3-0.3,0.5C16.9,12.9,17,13,17.2,13.2z"/>
        </g>
    </svg>

    <svg version="1.1" id="generate_document" xmlns="http://www.w3.org/2000/svg" xmlns:xlink="http://www.w3.org/1999/xlink" x="0px" y="0px"
        viewBox="0 0 24 24" style="enable-background:new 0 0 24 24;" xml:space="preserve">
        <g>
            <path d="M12.4,19.5l-3.7-3.7l3.7-3.7v2.8h4.7V7.3c0-1-0.8-1.9-1.9-1.9H5c-1,0-1.9,0.8-1.9,1.9v13.1c0,1,0.8,1.9,1.9,1.9h10.3
                c1,0,1.9-0.8,1.9-1.9v-3.7h-4.7V19.5z"/>
            <path d="M19,1.7H7.8v1.9H19v7.5h0v3.7h-1.8v1.9H19h1.8h0V3.6C20.9,2.6,20,1.7,19,1.7z"/>
        </g>
    </svg>

    <svg version="1.1" id="gondola_prices" xmlns="http://www.w3.org/2000/svg" xmlns:xlink="http://www.w3.org/1999/xlink" x="0px" y="0px"
        viewBox="0 0 24 24" style="enable-background:new 0 0 24 24;" xml:space="preserve">
        <style type="text/css">
            .st0{fill:none;}
        </style>
        <rect class="st0" width="24" height="24"/>
        <g>
            <g>
                <g id="XMLID_17_">
                    <rect id="XMLID_20_" x="0.6" y="8.1" width="7.4" height="2.5"/>
                    <rect id="XMLID_19_" x="0.6" y="3.1" width="14.9" height="2.5"/>
                    <rect id="XMLID_18_" x="0.6" y="13.1" width="7.4" height="2.5"/>
                </g>
            </g>
            <path d="M23,14.2l-5.7-5.7c-0.2-0.2-0.5-0.4-0.9-0.4h-4.5c-0.7,0-1.3,0.6-1.3,1.3v4.5c0,0.4,0.1,0.7,0.4,0.9l5.7,5.7
                c0.2,0.2,0.5,0.4,0.9,0.4c0.4,0,0.7-0.1,0.9-0.4L23,16c0.2-0.2,0.4-0.5,0.4-0.9C23.4,14.8,23.2,14.4,23,14.2z M12.8,11.3
                c-0.5,0-1-0.4-1-1c0-0.5,0.4-1,1-1c0.5,0,1,0.4,1,1C13.8,10.9,13.4,11.3,12.8,11.3z"/>
        </g>
    </svg>

    <svg id="mercadopago" xmlns="http://www.w3.org/2000/svg" width="24" height="24" viewBox="0 0 24 24">
        <defs>
            <style>
            .bdee0c5c-5b58-44e6-b08b-05cc77390d45 {
                fill: #0a169a;
            }

            .b05d4a5d-9f96-445f-b527-b331bc1778b7 {
                fill: #009ada;
            }

            .bd7eeb70-6608-4613-b025-2801a7c5a40a {
                fill: #fff;
            }

            .b0700c05-b810-4540-9955-8aa36f24cb0f {
                fill: none;
            }
            </style>
        </defs>
        <g>
            <g>
            <path class="bdee0c5c-5b58-44e6-b08b-05cc77390d45" d="M23.5,11.6C23.5,7.4,18.4,4,12,4S.5,7.4.5,11.6V12C.5,16.4,5,20,12,20s11.5-3.6,11.5-8Z"/>
            <path class="b05d4a5d-9f96-445f-b527-b331bc1778b7" d="M23.1,11.6c0,3.9-5,7-11.1,7S.9,15.5.9,11.6,5.9,4.5,12,4.5,23.1,7.7,23.1,11.6Z"/>
            <g>
                <path class="bd7eeb70-6608-4613-b025-2801a7c5a40a" d="M8.3,9.3s-.1.2,0,.2a1.2,1.2,0,0,0,1.2.3A2.8,2.8,0,0,0,10.7,9L12,8.2h.9l.9.5,4.3,3.7A29.6,29.6,0,0,1,23,10.8a6.2,6.2,0,0,0-2.3-3.6,7.4,7.4,0,0,1-6,.1,4.6,4.6,0,0,0-2.3-.5A3.9,3.9,0,0,0,9.3,8.3Z"/>
                <path class="bd7eeb70-6608-4613-b025-2801a7c5a40a" d="M18,12.7,13.6,8.9a1.6,1.6,0,0,0-1-.4h-.4a3.1,3.1,0,0,0-1.3.8,6.6,6.6,0,0,1-1.3.8,3,3,0,0,1-1.4-.2L8,9.6c-.1-.2.1-.4.1-.5l1-1,.3-.4-.9.2-1,.2H6.4L3.6,7A6.2,6.2,0,0,0,1,10.7l.7.2c3.1.7,4.1,1.4,4.3,1.6a.9.9,0,0,1,.8-.4,1.2,1.2,0,0,1,.8.4l.8-.2h.4c.4.1.6.3.6.5h.5l.5.2a1,1,0,0,1,.6,1.2h.2a1.3,1.3,0,0,1,1.2,1.2.8.8,0,0,1-.2.6,1.8,1.8,0,0,0,1.1.3c.4,0,.5-.1.5-.2a.1.1,0,0,0,.1-.1L13,15s-.2-.2-.1-.2.1,0,.2.1l1,.9h.2a.9.9,0,0,0,.7-.1l.2-.2h0a.6.6,0,0,0,0-.6l-1.1-1.1v-.2c.1-.1.2,0,.2.1a10.9,10.9,0,0,1,1.3,1.1c.1.1.4.3,1,0a.7.7,0,0,0,.3-.7.7.7,0,0,0-.2-.4l-1.4-1.4s-.2-.1-.1-.2h.2L17,13.8a.8.8,0,0,0,.9,0,1.3,1.3,0,0,0,.4-.6A.7.7,0,0,0,18,12.7Z"/>
                <path class="bd7eeb70-6608-4613-b025-2801a7c5a40a" d="M11.2,14.5h-.5c-.1,0,0-.1,0-.2s.3-.9-.4-1.2a.8.8,0,0,0-1,.2h0a.9.9,0,0,0-.6-.7,1.1,1.1,0,0,0-1.2.5.7.7,0,0,0-.7-.7.7.7,0,0,0-.8.7.7.7,0,0,0,.8.8l.5-.2h0a1.1,1.1,0,0,0,.6,1.2,1.1,1.1,0,0,0,.8-.1c0-.1.1,0,0,0a.7.7,0,0,0,.6.8c.4.2.6,0,.8-.2h.1a1,1,0,0,0,1.9-.1A.9.9,0,0,0,11.2,14.5Z"/>
            </g>
            <path class="bdee0c5c-5b58-44e6-b08b-05cc77390d45" d="M18.2,12.3,13.9,8.6,13,8.1H12a2.6,2.6,0,0,0-1.3.8h-.1a3.4,3.4,0,0,1-1.1.7H9.1a1.9,1.9,0,0,1-.8-.3h.1l.9-1.1a4.6,4.6,0,0,1,3.1-1.5h.1a7.8,7.8,0,0,1,2.2.5,5.9,5.9,0,0,0,2.9.7,7.7,7.7,0,0,0,3.2-.7L20.4,7a7.4,7.4,0,0,1-2.8.6A6.6,6.6,0,0,1,14.9,7a5.1,5.1,0,0,0-2.4-.6h-.1a4,4,0,0,0-2.6.9l-1.4.3-.9.2H7.1c-.3-.1-2-.5-3.3-1l-.4.3A21.1,21.1,0,0,0,7,8.2h.5L8.6,8l.6-.2A.2.2,0,0,1,9,8L8.1,9.1c-.1.1-.3.3-.2.5l.3.3a1.5,1.5,0,0,0,1,.3h.4a3.1,3.1,0,0,0,1.3-.8,4.2,4.2,0,0,1,1.3-.7h.4l1,.5L18,12.7a.8.8,0,0,1,.2.5.5.5,0,0,1-.3.5H17l-1.6-1.5H15l.2.2,1.4,1.5.2.4a.5.5,0,0,1-.4.5l-.5.2h-.4l-.2-.2-1-1H14c-.1.1-.1.1,0,.2h.1l1,1.2a.4.4,0,0,1,0,.5H15a.6.6,0,0,1-.5.2h-.4a4.3,4.3,0,0,0-1-1h-.3a1,1,0,0,0,.1.3l.9,1h0l-.5.2h-.1a2.4,2.4,0,0,1-.9-.3,1.4,1.4,0,0,0,.2-.6,1.3,1.3,0,0,0-1.3-1.3h-.1a1.1,1.1,0,0,0-.7-1.2H9.5a1.3,1.3,0,0,0-.7-.5H8.4a1.3,1.3,0,0,0-.8.3,1,1,0,0,0-.8-.5.9.9,0,0,0-.8.4c-.3-.3-1.4-.9-4.3-1.6L1,10.6v.5h.6c3,.7,4,1.4,4.1,1.5s-.1.3-.1.4a1.2,1.2,0,0,0,1.2,1.2H7a1.4,1.4,0,0,0,.8,1h.7c0,.2.2.4.7.6h.7a1.4,1.4,0,0,0,1.3.9,1.8,1.8,0,0,0,.9-.4,2.9,2.9,0,0,0,1.1.3h.2a1.4,1.4,0,0,0,.7-.4c.1,0,.1,0,.1-.1h.3a1.3,1.3,0,0,0,.8-.3.8.8,0,0,0,.4-.6h.2a1.2,1.2,0,0,0,.8-.2,1.2,1.2,0,0,0,.5-1h.2l.7-.2a1,1,0,0,0,.5-.8,1.7,1.7,0,0,0-.1-.7,34,34,0,0,1,4.6-1.4.9.9,0,0,1-.1-.5A27.1,27.1,0,0,0,18.2,12.3Zm-7,4a.8.8,0,0,1-.9-.8v-.2H10l-.4.2H9.3a.7.7,0,0,1-.5-.7H8.6a.5.5,0,0,1-.4.2H8a.8.8,0,0,1-.6-1.1H7.3l-.5.2a.8.8,0,0,1-.7-.8.8.8,0,0,1,.7-.7.8.8,0,0,1,.7.7h.1a1.1,1.1,0,0,1,.8-.5h.3a.7.7,0,0,1,.5.7h.2c0-.1.2-.2.5-.2h.4c.6.3.3,1.1.3,1.1v.2h.6a1.1,1.1,0,0,1,.9.9A1,1,0,0,1,11.2,16.3Z"/>
            </g>
            <rect class="b0700c05-b810-4540-9955-8aa36f24cb0f" width="24" height="24"/>
        </g>
    </svg>

    <svg id="mercadolibre" xmlns="http://www.w3.org/2000/svg" width="24" height="24" viewBox="0 0 24 24">
        <defs>
            <style>
            .acba03b4-5dae-4fc8-a58c-3265f223f4d8 {
                fill: #0a169a;
            }

            .bfd1ff4e-d495-4c4b-ae93-1321ea10a7eb {
                fill: #ffe600;
            }

            .f0e544ec-4ebd-4366-9882-6f7432a7949d {
                fill: #fff;
            }

            .b226f961-c5b6-4445-8fa8-befe067acbb9 {
                fill: none;
            }
            </style>
        </defs>
        <g>
            <g>
            <path class="acba03b4-5dae-4fc8-a58c-3265f223f4d8" d="M23.5,11.6C23.5,7.4,18.4,4,12,4S.5,7.4.5,11.6V12C.5,16.4,5,20,12,20s11.5-3.6,11.5-8Z"/>
            <path class="bfd1ff4e-d495-4c4b-ae93-1321ea10a7eb" d="M23.1,11.6c0,3.9-5,7-11.1,7S.9,15.5.9,11.6,5.9,4.5,12,4.5,23.1,7.7,23.1,11.6Z"/>
            <g>
                <path class="f0e544ec-4ebd-4366-9882-6f7432a7949d" d="M8.3,9.3s-.1.2,0,.2a1.2,1.2,0,0,0,1.2.3A2.8,2.8,0,0,0,10.7,9L12,8.2h.9l.9.5,4.3,3.7A29.6,29.6,0,0,1,23,10.8a6.2,6.2,0,0,0-2.3-3.6,7.4,7.4,0,0,1-6,.1,4.6,4.6,0,0,0-2.3-.5A3.9,3.9,0,0,0,9.3,8.3Z"/>
                <path class="f0e544ec-4ebd-4366-9882-6f7432a7949d" d="M18,12.7,13.6,8.9a1.6,1.6,0,0,0-1-.4h-.4a3.1,3.1,0,0,0-1.3.8,6.6,6.6,0,0,1-1.3.8,3,3,0,0,1-1.4-.2L8,9.6c-.1-.2.1-.4.1-.5l1-1,.3-.4-.9.2-1,.2H6.4L3.6,7A6.2,6.2,0,0,0,1,10.7l.7.2c3.1.7,4.1,1.4,4.3,1.6a.9.9,0,0,1,.8-.4,1.2,1.2,0,0,1,.8.4l.8-.2h.4c.4.1.6.3.6.5h.5l.5.2a1,1,0,0,1,.6,1.2h.2a1.3,1.3,0,0,1,1.2,1.2.8.8,0,0,1-.2.6,1.8,1.8,0,0,0,1.1.3c.4,0,.5-.1.5-.2a.1.1,0,0,0,.1-.1L13,15s-.2-.2-.1-.2.1,0,.2.1l1,.9h.2a.9.9,0,0,0,.7-.1l.2-.2h0a.6.6,0,0,0,0-.6l-1.1-1.1v-.2c.1-.1.2,0,.2.1a10.9,10.9,0,0,1,1.3,1.1c.1.1.4.3,1,0a.7.7,0,0,0,.3-.7.7.7,0,0,0-.2-.4l-1.4-1.4s-.2-.1-.1-.2h.2L17,13.8a.8.8,0,0,0,.9,0,1.3,1.3,0,0,0,.4-.6A.7.7,0,0,0,18,12.7Z"/>
                <path class="f0e544ec-4ebd-4366-9882-6f7432a7949d" d="M11.2,14.5h-.5c-.1,0,0-.1,0-.2s.3-.9-.4-1.2a.8.8,0,0,0-1,.2h0a.9.9,0,0,0-.6-.7,1.1,1.1,0,0,0-1.2.5.7.7,0,0,0-.7-.7.7.7,0,0,0-.8.7.7.7,0,0,0,.8.8l.5-.2h0a1.1,1.1,0,0,0,.6,1.2,1.1,1.1,0,0,0,.8-.1c0-.1.1,0,0,0a.7.7,0,0,0,.6.8c.4.2.6,0,.8-.2h.1a1,1,0,0,0,1.9-.1A.9.9,0,0,0,11.2,14.5Z"/>
            </g>
            <path class="acba03b4-5dae-4fc8-a58c-3265f223f4d8" d="M18.2,12.3,13.9,8.6,13,8.1H12a2.6,2.6,0,0,0-1.3.8h-.1a3.4,3.4,0,0,1-1.1.7H9.1a1.9,1.9,0,0,1-.8-.3h.1l.9-1.1a4.6,4.6,0,0,1,3.1-1.5h.1a7.8,7.8,0,0,1,2.2.5,5.9,5.9,0,0,0,2.9.7,7.7,7.7,0,0,0,3.2-.7L20.4,7a7.4,7.4,0,0,1-2.8.6A6.6,6.6,0,0,1,14.9,7a5.1,5.1,0,0,0-2.4-.6h-.1a4,4,0,0,0-2.6.9l-1.4.3-.9.2H7.1c-.3-.1-2-.5-3.3-1l-.4.3A21.1,21.1,0,0,0,7,8.2h.5L8.6,8l.6-.2A.2.2,0,0,1,9,8L8.1,9.1c-.1.1-.3.3-.2.5l.3.3a1.5,1.5,0,0,0,1,.3h.4a3.1,3.1,0,0,0,1.3-.8,4.2,4.2,0,0,1,1.3-.7h.4l1,.5L18,12.7a.8.8,0,0,1,.2.5.5.5,0,0,1-.3.5H17l-1.6-1.5H15l.2.2,1.4,1.5.2.4a.5.5,0,0,1-.4.5l-.5.2h-.4l-.2-.2-1-1H14c-.1.1-.1.1,0,.2h.1l1,1.2a.4.4,0,0,1,0,.5H15a.6.6,0,0,1-.5.2h-.4a4.3,4.3,0,0,0-1-1h-.3a1,1,0,0,0,.1.3l.9,1h0l-.5.2h-.1a2.4,2.4,0,0,1-.9-.3,1.4,1.4,0,0,0,.2-.6,1.3,1.3,0,0,0-1.3-1.3h-.1a1.1,1.1,0,0,0-.7-1.2H9.5a1.3,1.3,0,0,0-.7-.5H8.4a1.3,1.3,0,0,0-.8.3,1,1,0,0,0-.8-.5.9.9,0,0,0-.8.4c-.3-.3-1.4-.9-4.3-1.6L1,10.6v.5h.6c3,.7,4,1.4,4.1,1.5s-.1.3-.1.4a1.2,1.2,0,0,0,1.2,1.2H7a1.4,1.4,0,0,0,.8,1h.7c0,.2.2.4.7.6h.7a1.4,1.4,0,0,0,1.3.9,1.8,1.8,0,0,0,.9-.4,2.9,2.9,0,0,0,1.1.3h.2a1.4,1.4,0,0,0,.7-.4c.1,0,.1,0,.1-.1h.3a1.3,1.3,0,0,0,.8-.3.8.8,0,0,0,.4-.6h.2a1.2,1.2,0,0,0,.8-.2,1.2,1.2,0,0,0,.5-1h.2l.7-.2a1,1,0,0,0,.5-.8,1.7,1.7,0,0,0-.1-.7,34,34,0,0,1,4.6-1.4.9.9,0,0,1-.1-.5A27.1,27.1,0,0,0,18.2,12.3Zm-7,4a.8.8,0,0,1-.9-.8v-.2H10l-.4.2H9.3a.7.7,0,0,1-.5-.7H8.6a.5.5,0,0,1-.4.2H8a.8.8,0,0,1-.6-1.1H7.3l-.5.2a.8.8,0,0,1-.7-.8.8.8,0,0,1,.7-.7.8.8,0,0,1,.7.7h.1a1.1,1.1,0,0,1,.8-.5h.3a.7.7,0,0,1,.5.7h.2c0-.1.2-.2.5-.2h.4c.6.3.3,1.1.3,1.1v.2h.6a1.1,1.1,0,0,1,.9.9A1,1,0,0,1,11.2,16.3Z"/>
            </g>
            <rect class="b226f961-c5b6-4445-8fa8-befe067acbb9" width="24" height="24"/>
        </g>
    </svg>


    <svg id="percent_batch" xmlns="http://www.w3.org/2000/svg" viewBox="0 0 24 24">
        <defs>
            <style>.cls-1{fill:none;}</style>
        </defs>
        <rect x="1" y="9.5" width="8.4" height="2.8"/>
        <rect x="1" y="3.9" width="16.8" height="2.8"/>
        <rect x="1" y="15.1" width="8.4" height="2.8"/>
        <path d="M11.9,12a2.2,2.2,0,0,1,.8-1.8,2.4,2.4,0,0,1,1.9-.7,2.7,2.7,0,0,1,2,.7,2.3,2.3,0,0,1,.7,1.8v.6a2.1,2.1,0,0,1-.7,1.8,2.7,2.7,0,0,1-2,.7,2.5,2.5,0,0,1-1.9-.7,2.2,2.2,0,0,1-.8-1.8Zm1.8.6a.9.9,0,0,0,.3.7.6.6,0,0,0,.6.3c.6,0,.9-.4.9-1.1V12a1.4,1.4,0,0,0-.2-.7.9.9,0,0,0-.7-.3.6.6,0,0,0-.6.3.9.9,0,0,0-.3.7Zm1.5,8.2-1.3-.6,5.8-9.5,1.3.7Zm2.5-2a2.1,2.1,0,0,1,.7-1.8,2.5,2.5,0,0,1,1.9-.7,2.6,2.6,0,0,1,2,.7,2.1,2.1,0,0,1,.7,1.8v.6a2.1,2.1,0,0,1-.7,1.8,2.5,2.5,0,0,1-1.9.7,2.6,2.6,0,0,1-2-.7,2.3,2.3,0,0,1-.7-1.8Zm1.7.6a1,1,0,0,0,1,1,.7.7,0,0,0,.8-.8v-.8c0-.3,0-.6-.2-.7a.9.9,0,0,0-.7-.3.9.9,0,0,0-.6.3c-.2.1-.2.3-.3.6Z"/>
        <rect class="cls-1" width="24" height="24"/>
    </svg>

    <svg xmlns="http://www.w3.org/2000/svg" id="person_add_disabled" width="24" height="24" viewBox="0 0 24 24">
        <path fill="none" d="M0 0h24v24H0V0z"/>
        <circle cx="15" cy="8" r="4"/>
        <path d="M23 20v-2c0-2.3-4.1-3.7-6.9-3.9l6 5.9h.9zm-11.6-5.5C9.2 15.1 7 16.3 7 18v2h9.9l4 4 1.3-1.3-21-20.9L0 3.1l4 4V10H1v2h3v3h2v-3h2.9l2.5 2.5zM6 10v-.9l.9.9H6z"/>
    </svg>

    <svg version="1.1" id="price_edit" name="price_edit" xmlns="http://www.w3.org/2000/svg" xmlns:xlink="http://www.w3.org/1999/xlink" x="0px" y="0px"
        viewBox="0 0 24 24" style="enable-background:new 0 0 24 24;" xml:space="preserve">
        <style type="text/css">
            .st0{fill:none;}
        </style>
        <g>
            <path class="st0" d="M0,0h24v24H0V0z"/>
            <path d="M10.8,19.9v2.4h2.4l7.1-7.1l-2.4-2.4L10.8,19.9z M22.1,13.3c0.2-0.2,0.2-0.7,0-0.9l-1.5-1.5c-0.2-0.2-0.7-0.2-0.9,0
                l-1.2,1.2l2.4,2.4L22.1,13.3z"/>
            <path d="M11.1,17.4h-2v-1.6c-1.4-0.3-2.6-1.2-2.7-2.8H8c0.1,0.9,0.7,1.6,2.2,1.6c1.6,0,2-0.8,2-1.3c0-0.7-0.4-1.3-2.2-1.8
                c-2.1-0.5-3.5-1.3-3.5-3.1c0-1.4,1.2-2.4,2.6-2.7V4.1h2.2v1.6c1.5,0.4,2.3,1.5,2.4,2.8H12C12,7.6,11.5,7,10.2,7c-1.3,0-2,0.6-2,1.4
                c0,0.7,0.5,1.2,2.2,1.6c1.7,0.4,3.5,1.2,3.5,3.3c0,1.5-1.1,2.4-2.6,2.6v1.4l7.2-7.2c-0.4-4.3-4-7.7-8.4-7.7c-4.6,0-8.4,3.8-8.4,8.4
                c0,4.4,3.4,8,7.7,8.4L11.1,17.4z"/>
        </g>
    </svg>

    <svg version="1.1" id="price_list" xmlns="http://www.w3.org/2000/svg" xmlns:xlink="http://www.w3.org/1999/xlink" x="0px" y="0px"
        viewBox="0 0 24 24" style="enable-background:new 0 0 24 24;" xml:space="preserve">
        <style type="text/css">
            .st0{fill:none;}
        </style>
        <rect class="st0" width="24" height="24"/>
        <g>
            <g>
                <g id="XMLID_2_">
                    <rect id="XMLID_3_" x="4.2" y="8.4" width="6.8" height="2.3"/>
                    <rect id="XMLID_4_" x="4.2" y="3.9" width="13.6" height="2.3"/>
                    <rect id="XMLID_5_" x="4.2" y="13" width="6.8" height="2.3"/>
                </g>
            </g>
            <path d="M16.8,13.6c-1.5-0.4-1.9-0.8-1.9-1.4c0-0.7,0.7-1.2,1.7-1.2c1.2,0,1.6,0.6,1.6,1.4h1.4c0-1.1-0.7-2.1-2.1-2.5V8.4h-1.9v1.4
                c-1.3,0.3-2.3,1.1-2.3,2.3c0,1.5,1.2,2.2,3,2.7c1.6,0.4,1.9,1,1.9,1.6c0,0.4-0.3,1.2-1.7,1.2c-1.3,0-1.9-0.6-1.9-1.4h-1.4
                c0.1,1.4,1.1,2.2,2.4,2.5v1.4h1.9v-1.4c1.3-0.2,2.3-1,2.3-2.3C19.8,14.6,18.3,13.9,16.8,13.6z"/>
        </g>
    </svg>

    <svg version="1.1" id="product_compound" xmlns="http://www.w3.org/2000/svg" xmlns:xlink="http://www.w3.org/1999/xlink" x="0px" y="0px"
        viewBox="0 0 24 24" style="enable-background:new 0 0 24 24;" xml:space="preserve">
        <path d="M2.3,2.3v19.5h19.5V2.3H2.3z M11,19.8H4.5v-6.5H11V19.8z M19.1,13.3v6.5h-6.5v-6.5h3L11,8.8v3H4.5V5.3H11v3.5l4.6-4.6
            l4.6,4.6l-4.6,4.6H19.1z"/>
    </svg>

    <svg version="1.1" id="product_variant" xmlns="http://www.w3.org/2000/svg" xmlns:xlink="http://www.w3.org/1999/xlink" x="0px" y="0px"
        viewBox="0 0 24 24" style="enable-background:new 0 0 24 24;" xml:space="preserve">
        <g>
            <path d="M13,13.5v8h8v-8H13z M3,21.5h8v-8H3V21.5z M3,3.5v8h8v-8H3z"/>
            <polygon points="18.4,2.5 16.8,7.6 15.1,2.5 12.5,2.5 15.8,11.5 17.8,11.5 21,2.5 	"/>
        </g>
    </svg>

    <svg id="quick_edition" xmlns="http://www.w3.org/2000/svg" viewBox="0 0 24 24">
        <defs>
            <style>.a{fill:none;}</style>
        </defs>
        <polygon points="8.83 21 15.98 21 15.98 19 10.83 19 8.83 21"/>
        <polygon points="7.09 11.03 7.01 11.03 7.01 11.11 7.09 11.03"/>
        <polygon points="16.81 13.02 20.98 13.02 20.98 11.03 18.81 11.03 16.81 13.02"/>
        <polygon points="12.82 17.01 18.98 17.01 18.98 15.02 14.82 15.02 12.82 17.01"/>
        <path d="M3,17.21V21H6.76l11-11L14.05,6.18ZM20.69,7a1,1,0,0,0,0-1.4L18.35,3.29a1,1,0,0,0-1.4,0L15.12,5.12l3.74,3.74Z"/>
        <rect class="a" width="24" height="24"/>
    </svg>

    <svg id="quick_product" xmlns="http://www.w3.org/2000/svg" viewBox="0 0 24 24">
        <defs>
            <style>.cls-1{fill:none;}</style>
        </defs>
        <path d="M14.4,18.3h3.8v1.9H14.4Zm0-7.6H21v1.9H14.4Zm0,3.8h5.7v1.9H14.4Z"/>
        <rect x="4.9" y="13.6" width="7.6" height="7.62"/>
        <rect x="4.6" y="4.4" width="7.6" height="7.62" transform="translate(-3.3 8.3) rotate(-44.9)"/>
        <rect class="cls-1" width="24" height="24"/>
    </svg>

    <svg id="pin_rs" xmlns="http://www.w3.org/2000/svg" width="24" height="24" viewBox="0 0 24 24">
        <defs>
            <style>
            .e861211b-9be7-4c7e-bbb2-54f10ba0a0ac {
                fill: none;
            }
            </style>
        </defs>
        <g id="f8ac4df1-49b9-49d7-a28c-84af00d01196" data-name="Grupo 411">
            <path id="a5786dc1-b56c-4976-8d4c-0cbf2c0eefd6" data-name="Trazado 332" d="M16.6,11.4V4.1A1.1,1.1,0,0,0,15.5,3H9.2A1.1,1.1,0,0,0,8.1,4.1v7.3L6.3,13.2A1.1,1.1,0,0,0,6,14v.6a1.1,1.1,0,0,0,1.1,1.1h4.4v5.5a.9.9,0,0,0,.8.8h0a.9.9,0,0,0,.9-.8V15.7h4.4a1.1,1.1,0,0,0,1.1-1.1V14a1.1,1.1,0,0,0-.3-.8Z"/>
            <rect id="b7705289-9366-4caa-9a06-eac8d2edc920" data-name="Rectángulo 214" class="e861211b-9be7-4c7e-bbb2-54f10ba0a0ac" width="24" height="24"/>
        </g>
    </svg>

    <svg version="1.1" id="save_draft" xmlns="http://www.w3.org/2000/svg" xmlns:xlink="http://www.w3.org/1999/xlink" x="0px" y="0px"
        viewBox="0 0 24 24" style="enable-background:new 0 0 24 24;" xml:space="preserve">
        <g>
            <path d="M9,13.9h0.5c1-2.7,3.6-4.7,6.6-4.7c1.9,0,3.5,0.7,4.8,1.9V6.7l-4-4h-12c-1.1,0-2,0.9-2,2v14c0,1.1,0.9,2,2,2h5.7l-6.3-6.8
                H9z M4.9,4.7h10v4h-10V4.7z"/>
            <path d="M16.1,11.3c-2.6,0-4.8,2.1-5,4.7H9l2.9,3l3-3h-2.1c0.2-1.6,1.6-2.9,3.2-2.9c1.8,0,3.2,1.5,3.2,3.2s-1.5,3.2-3.2,3.2
                c-0.4,0-0.7-0.1-1.1-0.2l-1.3,1.3c0.7,0.4,1.6,0.6,2.4,0.6c2.8,0,5-2.3,5-5C21.1,13.5,18.9,11.3,16.1,11.3z"/>
        </g>
    </svg>

    <svg version="1.1" id="whatsapp" xmlns="http://www.w3.org/2000/svg" xmlns:xlink="http://www.w3.org/1999/xlink" x="0px" y="0px"
	    viewBox="0 0 24 24" style="enable-background:new 0 0 24 24;" xml:space="preserve">
        <style type="text/css">
            .st0{fill:none;}
        </style>
        <g>
            <g>
                <path d="M22,11.7c0,5.4-4.4,9.7-9.8,9.7c-1.7,0-3.3-0.4-4.7-1.2L2,22l1.8-5.2c-0.9-1.5-1.4-3.2-1.4-5C2.4,6.4,6.8,2,12.2,2
                    C17.6,2,22,6.4,22,11.7z M12.2,3.6c-4.6,0-8.3,3.7-8.3,8.2c0,1.8,0.6,3.5,1.6,4.8l-1,3l3.2-1c1.3,0.9,2.9,1.4,4.5,1.4
                    c4.6,0,8.3-3.7,8.3-8.2C20.4,7.2,16.7,3.6,12.2,3.6z M17.1,14c-0.1-0.1-0.2-0.2-0.5-0.3c-0.2-0.1-1.4-0.7-1.6-0.8
                    c-0.2-0.1-0.4-0.1-0.5,0.1c-0.2,0.2-0.6,0.8-0.8,0.9c-0.1,0.2-0.3,0.2-0.5,0.1c-0.2-0.1-1-0.4-1.9-1.2c-0.7-0.6-1.2-1.4-1.3-1.7
                    c-0.1-0.2,0-0.4,0.1-0.5c0.1-0.1,0.2-0.3,0.4-0.4c0.1-0.1,0.2-0.2,0.2-0.4c0.1-0.2,0-0.3,0-0.4c-0.1-0.1-0.5-1.3-0.7-1.8
                    C9.7,7.2,9.5,7.3,9.3,7.3c-0.1,0-0.3,0-0.5,0S8.5,7.4,8.2,7.6C8,7.8,7.4,8.4,7.4,9.6c0,1.2,0.9,2.3,1,2.5c0.1,0.2,1.7,2.6,4.1,3.6
                    c2.4,1,2.4,0.6,2.9,0.6c0.4,0,1.4-0.6,1.6-1.1C17.2,14.6,17.2,14.1,17.1,14z"/>
            </g>
            <rect class="st0" width="24" height="24"/>
        </g>
    </svg>
</svg>
